<svg width="32" height="28" fill="none" xmlns="http://www.w3.org/2000/svg"><path fill-rule="evenodd" clip-rule="evenodd" d="M1.783.083H3.45L3.533.1a5.333 5.333 0 0 1 5 3.783l.334 1.15H26.25a5.333 5.333 0 0 1 4 1.834 5.266 5.266 0 0 1 1.216 4.233l-1 6.9a5.333 5.333 0 0 1-5.233 4.667h-9.8a5.333 5.333 0 0 1-5.083-3.784L6.133 4.667A2.8 2.8 0 0 0 3.45 2.583H1.783a1.25 1.25 0 0 1 0-2.5zm10.967 18a2.8 2.8 0 0 0 2.683 2h9.8A2.833 2.833 0 0 0 28 17.7l1-6.917a2.8 2.8 0 0 0-2.717-3.266H9.617l3.133 10.566z" fill="#5C5C5F"/><path d="M15.05 24.667a1.667 1.667 0 1 0 0 3.333 1.667 1.667 0 0 0 0-3.333zM25.05 24.667a1.667 1.667 0 1 0 0 3.333 1.667 1.667 0 0 0 0-3.333z" fill="#5C5C5F"/></svg>